<svg xmlns="http://www.w3.org/2000/svg" xmlns:xlink="http://www.w3.org/1999/xlink" width="95" height="95" viewBox="0 0 95 95">
  <defs>
    <clipPath id="clip-Adaptability">
      <rect width="95" height="95"/>
    </clipPath>
  </defs>
  <g id="Adaptability" clip-path="url(#clip-Adaptability)">
    <g id="Ellipse_1" data-name="Ellipse 1" fill="#fff" stroke="#102d69" stroke-width="2">
      <circle cx="47.5" cy="47.5" r="47.5" stroke="none"/>
      <circle cx="47.5" cy="47.5" r="46.5" fill="none"/>
    </g>
    <g id="Group_28" data-name="Group 28" transform="translate(19.975 22.953)">
      <path id="Path_184" data-name="Path 184" d="M12.274,27.555c0,1.972-.008,3.935-.017,5.907,0,.63-.265.953-.77.969-.6.017-.837-.182-.845-.8-.008-1.524,0-3.041,0-4.565v-.621c-.688.389-1.292.746-1.914,1.069a4,4,0,0,1-.87.3.578.578,0,0,1-.737-.439.772.772,0,0,1,.323-.961c.936-.522,1.847-1.077,2.792-1.6a.669.669,0,0,0,.423-.688c-.033-.787-.008-1.574-.008-2.369-.563-.058-1.118-.108-1.674-.174a4.437,4.437,0,0,1-3.886-3.538,10.828,10.828,0,0,1-.116-2.378A1.434,1.434,0,0,1,6.168,16.4a6.806,6.806,0,0,1,3.132.3c.6.29,1.185.646,1.765.969a3.276,3.276,0,0,1,3.057-1.715,5.757,5.757,0,0,0,1.069,0c1.094-.124,1.632.671,1.682,1.607a3.908,3.908,0,0,1-.936,3.082A3.413,3.413,0,0,1,13.9,21.764c-.505.066-1.019.091-1.524.133-.025.033-.058.058-.083.091v3.538a1.732,1.732,0,0,1,.207.008q4.287-2.423,8.566-4.838c1.74-.986,3.48-1.98,5.211-3a.647.647,0,0,0,.282-.472c.025-.928.017-1.864.017-2.767-.663-.108-1.326-.166-1.963-.315a2.66,2.66,0,0,1-1.922-2.618,2.3,2.3,0,0,1,.356-1.657A1.251,1.251,0,0,1,24.1,9.32a5.981,5.981,0,0,0,.862,0,2.689,2.689,0,0,1,2.983,1.558,27.734,27.734,0,0,1,2.983-.025,1.316,1.316,0,0,1,1.077,1.2c.282,1.847-.613,3.778-2.875,3.72-1.085-.025-.862-.124-.986.911-.116.936.539,1.127,1.085,1.433,3.09,1.765,6.189,3.5,9.287,5.253.679.381,1.35.779,2.03,1.168.058.033.133.017.232.025V15.235c-.754,0-1.5.008-2.237,0a6.227,6.227,0,0,1-6.139-5.161,13.849,13.849,0,0,1-.017-3.314.856.856,0,0,1,.8-.845c1.988-.149,4-.323,5.857.646a14.465,14.465,0,0,1,1.682,1.193A20.636,20.636,0,0,1,41.4,5.343,7.984,7.984,0,0,1,47.252.306,23.294,23.294,0,0,1,52.4.074c.92-.017,1.35.522,1.334,1.458A9.981,9.981,0,0,1,53.3,5.7a24.241,24.241,0,0,1-1.21,2.295.865.865,0,0,1-1.2.24.945.945,0,0,1-.124-1.21,5.885,5.885,0,0,0,1.3-2.966,19.145,19.145,0,0,0,.017-2.394c-1.765.124-3.571-.224-5.327.464a6.565,6.565,0,0,0-4.167,4.722,22.155,22.155,0,0,0-.331,2.916c1.723-.116,3.314-.2,4.888-.34a4.036,4.036,0,0,0,.978-.34.979.979,0,0,1,1.176.29.9.9,0,0,1-.505,1.176,7,7,0,0,1-2.858.712c-1.16.025-2.328.017-3.488.025l-.091.091v5.65c1.6-1.226,3.339-.737,5-.8.6-.025,1.118.679,1.1,1.317a6.616,6.616,0,0,1-.315,2.809,4.343,4.343,0,0,1-3.612,2.411c-.679-.008-1.359,0-2.113,0,0,.9-.017,1.79.017,2.676,0,.149.232.331.4.431,2.27,1.284,4.54,2.552,6.81,3.828,1.533.862,3.057,1.756,4.59,2.618a1.17,1.17,0,0,1-.017,2.063c-1.226.688-2.419,1.425-3.629,2.137a.764.764,0,0,1-1.06-.215.723.723,0,0,1,.224-1.127c.978-.613,1.98-1.2,3.032-1.831-3.463-1.963-6.893-3.9-10.364-5.874v4.9c0,.679-.34,1.052-.895,1.052a.607.607,0,0,1-.688-.638c-.033-.588-.025-1.176-.025-1.773,0-1.342-.017-2.684,0-4.026,0-.348-.075-.58-.431-.663-.373-.091-.6-.6-1.11-.307-1.475.853-2.974,1.682-4.457,2.519q-2.6,1.466-5.178,2.949c-.174.1-.323.232-.547.389,1.21.679,2.353,1.326,3.488,1.972q4.188,2.386,8.368,4.78c.273.157.547.3.8.472a1.145,1.145,0,0,0,1.35-.041c1.085-.671,2.187-1.326,3.289-1.972A.929.929,0,0,1,47.6,37.3c.273.472.124.9-.414,1.218-3.819,2.229-7.63,4.474-11.45,6.694-2.577,1.5-5.178,2.974-7.755,4.474a1.03,1.03,0,0,1-1.127.008q-3.082-1.8-6.172-3.6c-2.1-1.218-4.184-2.427-6.28-3.645q-2.746-1.6-5.5-3.206C6.765,38,4.627,36.768,2.5,35.517c-.638-.373-1.284-.746-1.9-1.16a1.177,1.177,0,0,1,.108-2.079c1.135-.63,2.253-1.268,3.388-1.9a.9.9,0,0,1,1.276.282c.191.365.017.779-.481,1.077-.92.547-1.847,1.077-2.825,1.649.845.489,1.674.953,2.494,1.433,2.03,1.185,4.051,2.378,6.081,3.571.505.3,1,.613,1.533.862a.8.8,0,0,0,.621-.083c3.148-1.765,6.28-3.538,9.42-5.319,1.16-.654,2.311-1.309,3.513-2-.853-.5-1.665-.978-2.485-1.442l-7.655-4.349a.573.573,0,0,0-.663,0c-.845.505-1.7.978-2.552,1.466-.025.033-.058.058-.083.091Zm1.748,12.717c2.088,1.226,4.1,2.411,6.114,3.587,2.27,1.317,4.557,2.61,6.81,3.96a.77.77,0,0,0,.92.008q5.456-3.194,10.919-6.379c.638-.373,1.284-.746,1.972-1.143-1.06-.6-2.046-1.16-3.032-1.715q-5.07-2.871-10.149-5.725a.53.53,0,0,0-.447-.025c-.936.514-1.864,1.052-2.792,1.582q-3.306,1.889-6.62,3.77c-1.218.688-2.427,1.375-3.7,2.1ZM26.549,19.4c-3.264,1.847-6.421,3.645-9.652,5.468.166.108.257.174.356.232q1.715.969,3.422,1.939c2.1,1.193,4.192,2.4,6.3,3.571a.991.991,0,0,0,.812-.008c2.668-1.483,5.319-3,7.978-4.515.7-.4,1.384-.8,2.129-1.226C34.61,23,31.42,21.192,28.164,19.353v5.219c0,.762-.307,1.168-.853,1.152-.53-.008-.762-.365-.762-1.16V19.4ZM40.7,13.6c0-.679.025-1.284,0-1.889A4.394,4.394,0,0,0,38.86,8.334c-1.533-1.185-3.3-.787-5.087-.862.058.7.108,1.326.166,1.955a4.454,4.454,0,0,0,2.485,3.629C37.758,13.819,39.224,13.545,40.7,13.6ZM6.574,18.036c-.273,2.792,1.384,4.374,4.043,3.877.3-2.626-1.226-4.267-4.043-3.877Zm35.757,3.074h1.483a3.361,3.361,0,0,0,1.16-.05,2.563,2.563,0,0,0,1.781-3.272c-.729,0-1.466-.05-2.187.017a2.1,2.1,0,0,0-1.624.87,3.53,3.53,0,0,0-.6,2.444ZM12.3,20.1c2.386.4,3.09-.9,2.916-2.5C12.779,17.257,12.034,18.351,12.3,20.1Zm18.094-7.655c-2.079-.24-2.386.282-2.2,1.64C29.962,14.341,30.5,13.752,30.393,12.443Zm-3.861.141c.124-1.773-.654-1.8-2.237-1.616C24.229,12.41,24.693,12.816,26.532,12.584Z" transform="translate(0 0)" fill="#112e6a"/>
      <path id="Path_185" data-name="Path 185" d="M15.017,30.788a1.732,1.732,0,0,1-.207-.008A1.732,1.732,0,0,1,15.017,30.788Z" transform="translate(-2.536 -5.271)" fill="#112e6a"/>
      <path id="Path_186" data-name="Path 186" d="M51.09,13.661l.091-.091Z" transform="translate(-8.759 -2.32)" fill="#112e6a"/>
      <path id="Path_187" data-name="Path 187" d="M14.81,26.491a1.215,1.215,0,0,0,.083-.091C14.868,26.433,14.835,26.458,14.81,26.491Z" transform="translate(-2.536 -4.52)" fill="#112e6a"/>
      <path id="Path_188" data-name="Path 188" d="M14.81,33.231a1.216,1.216,0,0,0,.083-.091C14.868,33.173,14.835,33.2,14.81,33.231Z" transform="translate(-2.536 -5.676)" fill="#112e6a"/>
      <path id="Path_189" data-name="Path 189" d="M32.829,49.847v1.765c0,.58-.348.878-.978.878-.331,0-.621-.414-.63-.886V49.9a14.143,14.143,0,0,1-1.914-.182,3.068,3.068,0,0,1-1.632-4.292,1.105,1.105,0,0,1,1.019-.522,19.592,19.592,0,0,1,2.32.141,3.916,3.916,0,0,1,1.143.6,7.443,7.443,0,0,1,1.251-.29c.588-.05,1.176-.017,1.765-.008a1.093,1.093,0,0,1,1.168.92A3.293,3.293,0,0,1,35.9,48.8a2.517,2.517,0,0,1-2,1.06H32.829ZM31.2,48.2c.166-1.765-.6-1.814-2.229-1.616C28.86,47.8,29.316,48.463,31.2,48.2Zm3.546-1.251H33.7a.83.83,0,0,0-.862.986.382.382,0,0,0,.182.282A1.22,1.22,0,0,0,34.751,46.947Z" transform="translate(-4.681 -7.694)" fill="#112e6a"/>
    </g>
  </g>
</svg>
