<svg xmlns="http://www.w3.org/2000/svg" xmlns:xlink="http://www.w3.org/1999/xlink" width="95" height="95" viewBox="0 0 95 95">
  <defs>
    <clipPath id="clip-Cob_Grain_Type">
      <rect width="95" height="95"/>
    </clipPath>
  </defs>
  <g id="Cob_Grain_Type" data-name="Cob &amp; Grain Type" clip-path="url(#clip-Cob_Grain_Type)">
    <g id="Ellipse_1" data-name="Ellipse 1" fill="#fff" stroke="#102d69" stroke-width="2">
      <circle cx="47.5" cy="47.5" r="47.5" stroke="none"/>
      <circle cx="47.5" cy="47.5" r="46.5" fill="none"/>
    </g>
    <g id="Group_29" data-name="Group 29" transform="translate(26.297 19.607)">
      <path id="Path_190" data-name="Path 190" d="M20.734,11.562c1.092-1.034,2.084-2.025,3.134-2.966a45.813,45.813,0,0,1,10.3-7.479A9.2,9.2,0,0,1,38.322,0c2.42.059,3.706,1.513,3.983,3.949a20.228,20.228,0,0,1-1.218,8.336,63.326,63.326,0,0,1-4.277,10.437c-.025.05-.034.109-.076.227a13.915,13.915,0,0,1,1.328.655,7.256,7.256,0,0,1,2.823,3.723,5.972,5.972,0,0,1,.378,1.252,1.132,1.132,0,0,1-.176.874c-.235.176-.79.294-.958.151-.966-.84-1.8-.193-2.521.269a7.811,7.811,0,0,0-1.571,1.664c-.067.076-.017.336.067.429a10.054,10.054,0,0,1,1.95,4.151.852.852,0,0,1-.336,1.076.824.824,0,0,1-1.118-.227,1.743,1.743,0,0,0-2.714.008c-1.067,1.16-2.059,2.378-3.176,3.487a48.092,48.092,0,0,1-3.874,3.529c-1.781,1.437-3.622,2.823-5.521,4.1a26.638,26.638,0,0,1-7.2,3.471,16.12,16.12,0,0,1-4.966.8,14.107,14.107,0,0,1-1.5-.185c-.689.983-1.395,2-2.118,3.008-.521.731-.891.781-1.63.244-1.176-.849-2.344-1.706-3.513-2.555A.773.773,0,0,1,.2,51.721c.655-.992,1.361-1.95,2.067-2.9a.6.6,0,0,0,.076-.739,11.663,11.663,0,0,1-1.21-4.361,27.226,27.226,0,0,1-.1-3.79,37.058,37.058,0,0,1,.723-4.807,40.75,40.75,0,0,1,2.723-8.462C5.633,24.083,7,21.6,8.339,19.109c.58-1.092.588-1.966-.227-2.622-.185-.151-.487-.185-.63-.361a1.6,1.6,0,0,1-.445-.908c.025-.37.345-.613.815-.63a11.561,11.561,0,0,1,4.193.361c.193.067.387.143.664.235a5.6,5.6,0,0,0,1.336-2.462,9.414,9.414,0,0,0,.017-1.462c.008-.361-.227-.487-.487-.689-.227-.168-.479-.58-.42-.79a1.11,1.11,0,0,1,.723-.689,8.46,8.46,0,0,1,5.765,1.3,7.676,7.676,0,0,1,1.1,1.176ZM22.3,33.545c1.05-.513,2.16-1.059,3.26-1.605.042-1.109.412-1.319,1.42-.891a1.1,1.1,0,0,0,.714.05c.95-.269,1.882-.58,2.815-.882a5.463,5.463,0,0,0,.513-.21c-1.084-.067-1.672-.908-2.42-1.429-.555-.387-.622-.824-.168-1.193a1.3,1.3,0,0,1,1.185-.05,20.574,20.574,0,0,1,2.05,1.555c.479-.857.992-1.765,1.5-2.672-.647-.437-1.252-.79-1.79-1.235a1.306,1.306,0,0,1-.462-.866.891.891,0,0,1,.546-.63,1.406,1.406,0,0,1,.933.21c.538.311,1.025.706,1.555,1.084.378-.731.7-1.4,1.067-2.042.261-.445.261-.714-.252-.941a1.913,1.913,0,0,1-.781-.563,1.777,1.777,0,0,1-.37-1.017.6.6,0,0,1,.807-.454,4.2,4.2,0,0,1,.874.37,6.778,6.778,0,0,1,.714.513l1.218-2.7c-1.092-.8-1.252-1.1-.9-1.689.227-.387.672-.37,1.58.067.345-.95.731-1.882,1.034-2.84.966-3.1,2.084-6.185,1.689-9.529a2.306,2.306,0,0,0-2.966-2.286,11.628,11.628,0,0,0-4.529,1.882c-1.571,1.008-3.092,2.1-4.6,3.193-.647.471-1.227,1.034-1.849,1.563.109.126.151.21.218.227a.669.669,0,0,1,.412.9c-.076.235-.395.395-.622.563-.462.336-.655-.244-1-.3-.185-.034-.454-.092-.563,0-.655.555-1.269,1.143-1.933,1.756.378.286.731.546,1.067.815a.879.879,0,0,1,.26,1.185.818.818,0,0,1-1.218.1c-.429-.286-.849-.571-1.244-.849-.714.706-1.4,1.395-2.076,2.076.571.437,1.193.882,1.79,1.361a.636.636,0,0,1,.092,1.017c-.294.328-.655.546-1.109.218-.647-.462-1.294-.924-1.983-1.4-.7.8-1.387,1.6-2.134,2.454.277.034.487,0,.613.084a14.714,14.714,0,0,1,1.874,1.4,1.133,1.133,0,0,1,0,1.017c-.218.42-.773.395-1.311-.034-.639-.5-1.538-.756-1.807-1.731a.723.723,0,0,0-.109.412c0,.866,0,1.723.025,2.588.008.5-.176,1.017.479,1.353A.68.68,0,0,1,16.44,24.7a3.135,3.135,0,0,1-.588.319c-.176,1.286-.345,2.546-.5,3.739a3.559,3.559,0,0,1,.891.244c.5.319.941.723,1.437,1.05a.813.813,0,0,1,.269,1.143.8.8,0,0,1-1.2.168c-.546-.361-1.084-.723-1.655-1.109-.16.689-.286,1.319-.462,1.933-.2.689-.328,1.328.513,1.7a.459.459,0,0,1,.168.168.694.694,0,0,1-.1.983.723.723,0,0,1-.983.168,1.107,1.107,0,0,0-.269-.109c-.739,1.983-1.462,3.924-2.185,5.874q2.471-2,4.924-4c-.546-.4-.655-.874-.294-1.328.319-.395.933-.269,1.765.361.866-.529,1.731-1.067,2.655-1.639-.16-.134-.286-.252-.42-.353-.42-.328-.857-.647-1.277-.983a.722.722,0,0,1-.092-1.076.656.656,0,0,1,.958-.193c.487.328.983.655,1.454,1.008.294.227.546.5.849.781Zm13.537,1.193a4.442,4.442,0,0,0-5.588-2.765,43.046,43.046,0,0,0-8.395,3.714,47.213,47.213,0,0,0-10.109,7.647c-1.109,1.084-2.1,2.286-3.118,3.462-.5.588-.941,1.235-1.437,1.891a1.184,1.184,0,0,0,.193.017,42.789,42.789,0,0,0,9.084-4.723c3.067-2.067,6.05-4.244,9.092-6.344a20.531,20.531,0,0,1,2.5-1.437c.454-.227.849,0,1.067.479s-.025.765-.4.983c-.269.151-.563.252-.815.429C25.86,39.5,23.8,40.915,21.776,42.36a68.2,68.2,0,0,1-10.79,6.6c-1.084.5-2.193.95-3.328,1.445.168.067.3.134.437.185.05.017.118.008.176.025A10.863,10.863,0,0,0,13.2,50.15a22,22,0,0,0,6.428-2.95c1.983-1.328,3.907-2.739,5.807-4.168A24.887,24.887,0,0,0,27.818,40.9c1.2-1.185,2.37-2.412,3.538-3.63.6-.613,1.118-1.311,1.756-1.874a3.25,3.25,0,0,1,2.723-.639ZM4.037,47.923s.076-.059.118-.084c.16-1.655.26-3.311.5-4.958a45.557,45.557,0,0,1,.992-5.21c.857-3.227,1.849-6.42,2.765-9.638.387-1.345.739-2.706,1.042-4.067.143-.639.378-.891,1-.8a.913.913,0,0,1,.647,1.05c-.378,1.513-.731,3.025-1.16,4.521-.79,2.748-1.672,5.462-2.412,8.227-.471,1.739-.773,3.521-1.109,5.286-.176.941-.277,1.9-.378,2.849-.076.79-.1,1.588-.151,2.386A6.43,6.43,0,0,0,7.1,46.024c.975-1.723,1.958-3.437,2.823-5.21a41.169,41.169,0,0,0,1.765-4.319,38.022,38.022,0,0,0,2.008-8.05c.218-1.815.4-3.63.58-5.445.05-.521-.076-1.076.025-1.58a4.7,4.7,0,0,0-.26-2.462,4,4,0,0,0-3.975-2.672,3.588,3.588,0,0,1-.395,3.739A55.721,55.721,0,0,0,5.818,27.6,41.089,41.089,0,0,0,2.65,40.016,14.887,14.887,0,0,0,3,45.15a28.282,28.282,0,0,0,1.034,2.773ZM39.1,27.444c-.723-1.781-2.042-2.941-3.185-2.832-1.034,1.874-2.042,3.714-3.05,5.554.471.151.916.26,1.328.437.286.118.378.076.605-.168a16.582,16.582,0,0,1,2.328-2.218,7.92,7.92,0,0,1,1.983-.773ZM15.675,10.714c.5,2.092-.412,3.8-1.538,5.361.4.521.756.992,1.084,1.429,1.454-1.588,2.891-3.168,4.336-4.756a4.8,4.8,0,0,0-3.891-2.034ZM1.978,52.032c.849.613,1.647,1.185,2.471,1.773.521-.739,1.025-1.454,1.471-2.092-.84-.63-1.63-1.218-2.437-1.823-.487.7-.992,1.4-1.513,2.143Z" transform="translate(0 0)" fill="#112e6a"/>
      <path id="Path_191" data-name="Path 191" d="M29.462,28.73a4.343,4.343,0,0,1,.681.26c.555.37,1.109.748,1.622,1.168a.753.753,0,0,1,.143,1.084c-.252.336-.6.58-1.042.294-.588-.387-1.176-.781-1.731-1.218-.286-.218-.563-.538-.286-.941a4.906,4.906,0,0,1,.605-.639Z" transform="translate(-4.585 -4.588)" fill="#112e6a"/>
      <path id="Path_192" data-name="Path 192" d="M21.482,29.7a4.459,4.459,0,0,1,.706.3c.538.361,1.076.723,1.58,1.118a.8.8,0,0,1,.218,1.042.814.814,0,0,1-1.126.345c-.571-.378-1.143-.756-1.681-1.185-.277-.218-.58-.529-.336-.933A4.929,4.929,0,0,1,21.482,29.7Z" transform="translate(-3.311 -4.743)" fill="#112e6a"/>
      <path id="Path_193" data-name="Path 193" d="M33.6,18.385c-.017.706-.723,1.185-1.16.9a20.679,20.679,0,0,1-1.832-1.361.685.685,0,0,1-.109-1.059.732.732,0,0,1,1.067-.193c.613.42,1.21.866,1.79,1.319a1.448,1.448,0,0,1,.252.387Z" transform="translate(-4.835 -2.638)" fill="#112e6a"/>
      <path id="Path_194" data-name="Path 194" d="M42.952,4.828c.538.319.975.563,1.395.832.252.16.487.353.739.529A.778.778,0,0,1,45.4,7.282a.886.886,0,0,1-1.252.294,11.079,11.079,0,0,1-1.563-1.134,1.253,1.253,0,0,1-.294-.958c.025-.227.387-.4.664-.664Z" transform="translate(-6.748 -0.77)" fill="#112e6a"/>
      <path id="Path_195" data-name="Path 195" d="M30.375,22.773c-.008.8-.605,1.176-1.193.84a11.8,11.8,0,0,1-1.823-1.269.743.743,0,0,1-.042-1.118.8.8,0,0,1,1.092-.118A19.474,19.474,0,0,1,30.08,22.3,1.476,1.476,0,0,1,30.375,22.773Z" transform="translate(-4.322 -3.345)" fill="#112e6a"/>
      <path id="Path_196" data-name="Path 196" d="M26.557,28.341c-.429-.235-.748-.378-1.042-.58-.378-.26-.723-.563-1.092-.832-.429-.319-.58-.781-.353-1.118a1,1,0,0,1,1.235-.235,14.872,14.872,0,0,1,1.655,1.2.932.932,0,0,1,.244.8c-.084.277-.395.479-.655.765Z" transform="translate(-3.824 -4.065)" fill="#112e6a"/>
      <path id="Path_197" data-name="Path 197" d="M36.74,8.656c-.008-.8.538-1.176,1.092-.857a10.72,10.72,0,0,1,1.857,1.311,1.07,1.07,0,0,1,.1.966.691.691,0,0,1-1.059.319c-.588-.387-1.168-.79-1.723-1.227a1.238,1.238,0,0,1-.269-.5Z" transform="translate(-5.864 -1.227)" fill="#112e6a"/>
      <path id="Path_198" data-name="Path 198" d="M36.812,14.04c-.109.706-.748,1.092-1.294.748a18.38,18.38,0,0,1-1.63-1.151.886.886,0,0,1-.252-1.176.935.935,0,0,1,1.252-.143,15.971,15.971,0,0,1,1.42,1.059A3.633,3.633,0,0,1,36.812,14.04Z" transform="translate(-5.347 -1.94)" fill="#112e6a"/>
      <path id="Path_199" data-name="Path 199" d="M35.833,19.858c.319.16.513.227.681.336.5.336,1.017.672,1.5,1.042a.773.773,0,0,1,.244,1.109.761.761,0,0,1-1.1.252,12.927,12.927,0,0,1-1.773-1.244.9.9,0,0,1-.185-.8c.092-.269.4-.462.639-.706Z" transform="translate(-5.612 -3.17)" fill="#112e6a"/>
      <path id="Path_200" data-name="Path 200" d="M32.716,24.34a7.645,7.645,0,0,1,.933.445c.378.252.723.563,1.092.832a.951.951,0,0,1,.361,1.218.853.853,0,0,1-1.269.118A10.986,10.986,0,0,1,32.4,25.945a1.236,1.236,0,0,1-.328-.95c.034-.235.412-.429.655-.655Z" transform="translate(-5.117 -3.887)" fill="#112e6a"/>
      <path id="Path_201" data-name="Path 201" d="M39.02,15.507a7.453,7.453,0,0,1,.916.429c.454.3.908.63,1.328.975A.682.682,0,0,1,41.4,18c-.319.345-.689.529-1.151.143-.538-.445-1.151-.807-1.672-1.277a.921.921,0,0,1-.16-.79c.067-.227.37-.378.605-.588Z" transform="translate(-6.127 -2.474)" fill="#112e6a"/>
      <path id="Path_202" data-name="Path 202" d="M41.38,12.017a.881.881,0,0,1,1.387-.706c.546.336,1.05.756,1.571,1.134a.776.776,0,0,1,.218,1.118c-.235.4-.739.437-1.21.134a16.491,16.491,0,0,1-1.4-.958,3.7,3.7,0,0,1-.563-.723Z" transform="translate(-6.605 -1.782)" fill="#112e6a"/>
      <path id="Path_203" data-name="Path 203" d="M26.324,33.228a2.685,2.685,0,0,1,.664.21c.529.37,1.05.756,1.563,1.151a.739.739,0,0,1,.176,1.109.762.762,0,0,1-1.16.143,19.717,19.717,0,0,1-1.639-1.218,1.071,1.071,0,0,1-.193-.882c.059-.218.4-.361.6-.521Z" transform="translate(-4.103 -5.305)" fill="#112e6a"/>
    </g>
  </g>
</svg>
