<svg xmlns="http://www.w3.org/2000/svg" xmlns:xlink="http://www.w3.org/1999/xlink" width="95" height="95" viewBox="0 0 95 95">
  <defs>
    <clipPath id="clip-Maturity">
      <rect width="95" height="95"/>
    </clipPath>
  </defs>
  <g id="Maturity" clip-path="url(#clip-Maturity)">
    <g id="Ellipse_1" data-name="Ellipse 1" fill="#fff" stroke="#102d69" stroke-width="2">
      <circle cx="47.5" cy="47.5" r="47.5" stroke="none"/>
      <circle cx="47.5" cy="47.5" r="46.5" fill="none"/>
    </g>
    <g id="Layer_1" data-name="Layer 1" transform="translate(22.253 21.21)">
      <g id="Group_42" data-name="Group 42">
        <line id="Line_16" data-name="Line 16" y1="35.17" transform="translate(28.24 15.76)" fill="none" stroke="#112e6a" stroke-miterlimit="10" stroke-width="1.5"/>
        <path id="Path_359" data-name="Path 359" d="M49.86.79s5.47,21.86-21.62,21.86c0,0-.71-20.44,21.62-21.86Z" fill="none" stroke="#112e6a" stroke-miterlimit="10" stroke-width="1.5"/>
        <path id="Path_360" data-name="Path 360" d="M9.47,4.35S3.29,24.31,28.24,23.84c0,0,3.56-17.11-18.77-19.49Z" fill="none" stroke="#112e6a" stroke-miterlimit="10" stroke-width="1.5"/>
        <line id="Line_17" data-name="Line 17" y1="17.32" transform="translate(10.33 33.12)" fill="none" stroke="#112e6a" stroke-miterlimit="10" stroke-width="1.5"/>
        <path id="Path_361" data-name="Path 361" d="M20.98,25.74s2.69,10.77-10.65,10.77c0,0-.35-10.07,10.65-10.77Z" fill="none" stroke="#112e6a" stroke-miterlimit="10" stroke-width="1.5"/>
        <path id="Path_362" data-name="Path 362" d="M1.08,27.5s-3.04,9.83,9.25,9.6c0,0,1.76-8.43-9.25-9.6Z" fill="none" stroke="#112e6a" stroke-miterlimit="10" stroke-width="1.5"/>
      </g>
    </g>
  </g>
</svg>
